<?xml version="1.0" encoding="utf-8"?>
<svg x="311.494pt" y="1203.66pt" width="362.274pt" height="697.922pt" viewBox="311.494 1203.66 362.274 697.922" xmlns="http://www.w3.org/2000/svg" xmlns:xlink="http://www.w3.org/1999/xlink">
  <!--Generated by AMDN-->
  <path id="Path_27" style="fill:#000000;fill-opacity:1;fill-rule:nonzero;opacity:1;stroke:none;" d="M672.621,1856.45 C657.499,1855.6,642.9,1853.75,628.806,1850.95 C628.917,1841.28,624.874,1830.02,616.663,1817.17 C602.031,1795.78,588.168,1782.04,575.049,1775.97 C576.647,1791.6,580.687,1806.45,587.162,1820.5 C591.49,1829.74,596.242,1837.6,601.412,1844.07 C586.977,1839.66,573.138,1834.11,559.894,1827.43 C561.676,1818.84,560.757,1808.78,557.129,1797.24 C551.761,1781.04,542.928,1767.16,530.629,1755.6 C527.746,1768.07,528.169,1782.17,531.905,1797.9 C533.922,1804.73,536.501,1810.9,539.638,1816.41 C529.059,1810.33,519.024,1804.09,509.548,1797.67 C512.357,1790.65,513.51,1782.91,512.987,1774.42 C512.488,1765.62,510.713,1756.3,507.67,1746.46 C502.201,1730.46,498.693,1722.91,497.137,1723.79 C490.147,1733.95,486.52,1745.71,486.267,1759.06 C486.227,1768.62,487.709,1776.94,490.642,1784.08 C483.063,1778.3,475.885,1772.39,469.141,1766.35 C468.066,1765.4,467.014,1764.45,465.957,1763.5 C474.71,1745.52,473.388,1722.69,461.981,1694.98 C460.688,1694.07,457.848,1699.19,453.477,1710.34 C450.755,1717.73,449.191,1724.52,448.802,1730.71 C448.308,1737.04,449.154,1743.34,451.315,1749.61 C443.501,1741.78,436.278,1733.8,429.658,1725.69 C441.495,1709.88,444.112,1688.64,437.483,1661.94 C422.961,1682.1,419.225,1700.82,426.283,1718.1 C425.434,1718.12,424.584,1718.14,423.735,1718.17 C415.379,1707.21,408.089,1696,401.866,1684.55 C401.978,1684.47,402.098,1684.41,402.209,1684.34 C407.323,1680.33,410.248,1677.67,410.966,1676.36 C414.491,1672.16,417.517,1667.12,420.036,1661.22 C422.53,1654.83,424.465,1645.79,425.86,1634.11 C426.316,1627.69,425.885,1621.91,424.567,1616.79 C424.567,1616.78,424.567,1616.78,424.567,1616.77 C415.945,1624.4,409.309,1633.05,404.669,1642.75 C399.022,1654.14,396.875,1664.64,398.228,1674.24 C397.561,1673.68,396.704,1673.05,395.694,1672.36 C389.842,1659.93,385.21,1647.2,381.795,1634.19 C383.192,1633.48,384.538,1632.71,385.777,1631.84 C387.958,1630.4,390.13,1628.71,392.277,1626.76 C397.611,1621.47,400.798,1618.01,401.82,1616.35 C410.755,1602.08,414.998,1590.28,414.55,1580.95 C414.42,1579.82,414.291,1578.69,414.161,1577.57 C404.719,1583.93,397.078,1590.54,391.22,1597.38 C388.278,1600.8,385.776,1604.29,383.705,1607.83 C381.634,1611.38,380.003,1614.98,378.811,1618.64 C378.716,1619,378.62,1619.36,378.525,1619.72 C378.029,1617.11,377.564,1614.5,377.162,1611.87 C375.272,1602.59,373.826,1592.63,372.789,1582.07 C373.377,1581.78,373.987,1581.51,374.55,1581.19 C376.908,1579.95,379.284,1578.48,381.676,1576.77 C387.669,1572.08,391.279,1568.99,392.513,1567.48 C394.314,1565.94,397.923,1561.83,403.341,1555.18 C405.294,1552.58,406.95,1550.08,408.311,1547.66 C411.177,1541.79,412.537,1538.37,412.394,1537.42 C412.546,1536.37,412.699,1535.33,412.851,1534.28 C412.471,1534.1,412.006,1534.01,411.439,1533.99 C411.369,1533.99,411.298,1533.99,411.228,1533.99 C403.646,1534.88,395.176,1539.4,385.801,1547.54 C379.899,1553.11,375.14,1558.53,371.445,1563.78 C370.997,1554.76,370.831,1545.31,370.929,1535.46 C371.086,1535.37,371.241,1535.3,371.398,1535.21 C373.706,1533.94,376.123,1532.39,378.651,1530.55 C379.775,1529.99,383.824,1526.59,390.781,1520.35 C392.81,1518.55,396.833,1514.2,402.852,1507.27 C405.024,1504.63,406.842,1502.15,408.321,1499.85 C411.322,1495.3,412.843,1491.33,412.894,1487.91 C412.429,1487.75,411.618,1487.92,410.443,1488.45 C405.227,1490.69,400.916,1492.74,397.493,1494.59 C391.449,1497.79,386.504,1501.03,382.667,1504.31 C378.092,1507.77,374.368,1511.42,371.483,1515.27 C371.866,1506.62,372.44,1497.68,373.201,1488.46 C373.426,1488.39,373.632,1488.32,373.867,1488.24 C375.854,1487.45,378.018,1486.42,380.351,1485.13 C385.025,1482.56,390.393,1479.01,396.454,1474.45 C401.272,1470.67,406.209,1465.63,411.255,1459.33 C413.647,1455.94,414.805,1453.04,414.721,1450.65 C414.307,1449.85,411.002,1450.37,404.806,1452.23 C399.768,1453.64,395.347,1455.36,391.543,1457.4 C386.497,1460.11,381.797,1463.22,377.443,1466.71 C376.68,1467.37,375.986,1467.98,375.324,1468.57 C376.684,1458.3,378.443,1448.16,380.605,1438.16 C387.218,1437.17,395.515,1434.44,405.515,1429.93 C419.192,1422.78,426.766,1416.83,428.245,1412.07 C428,1411.23,423.435,1411.4,414.551,1412.56 C407.594,1413.55,402.455,1414.74,399.15,1416.11 C392.797,1418.95,387.642,1421.99,383.641,1425.23 C386.121,1415.45,388.986,1405.79,392.249,1396.27 C397.634,1396.51,403.914,1395.84,411.153,1394.18 C416.039,1393.26,423.427,1390.75,433.325,1386.65 C441.127,1383.25,445.447,1380.67,446.292,1378.9 C438.042,1376.49,428.642,1376.06,418.084,1377.64 C409.677,1379.05,402.416,1381.57,396.261,1385.15 C397.532,1381.8,398.836,1378.45,400.206,1375.13 C402.51,1369.28,405.258,1363.34,408.419,1357.32 C412.756,1358.06,417.683,1358.4,423.274,1358.28 C430.662,1358.07,438.98,1357.15,448.219,1355.51 C455.996,1353.85,459.724,1352.38,459.411,1351.09 C448.236,1346.61,438.87,1344.23,431.305,1343.96 C424.92,1344.35,419.115,1345.57,413.866,1347.59 C418.819,1339.24,424.577,1330.73,431.136,1322.07 C437.395,1323.22,446.514,1324.04,458.54,1324.53 C472.935,1324.46,482.944,1322.89,488.565,1319.83 C489.114,1319.34,488.413,1318.63,486.469,1317.7 C481.093,1315.24,476.993,1313.52,474.161,1312.56 C468.929,1310.57,463.848,1309.39,458.929,1309 C452.162,1308.54,445.639,1309.44,439.344,1311.65 C440.679,1310.02,442.036,1308.39,443.426,1306.75 C448.719,1300.85,453.61,1295.53,458.117,1290.76 C459.22,1291.1,460.317,1291.39,461.406,1291.58 C465.717,1292.61,471,1293.47,477.255,1294.16 C490.104,1294.66,499.292,1294.78,504.829,1294.53 C509.512,1294.27,511.963,1294.07,512.166,1293.92 C514.516,1293.54,515.649,1292.99,515.564,1292.29 C512.994,1288.62,504.879,1285.18,491.236,1281.99 C482.11,1279.85,474.618,1279.16,468.71,1279.88 C471.578,1277.04,474.253,1274.47,476.68,1272.26 C480.507,1268.82,484.335,1265.37,488.162,1261.93 C488.867,1262.22,489.605,1262.53,490.408,1262.86 C498.388,1265.59,504.372,1267.21,508.371,1267.71 C516.063,1268.94,522.538,1269.47,527.796,1269.31 C534.482,1268.95,537.889,1268,538.024,1266.49 C537.601,1265.87,535.522,1264.33,531.794,1261.88 C530.213,1260.94,528.489,1260.05,526.638,1259.21 C522.936,1257.54,518.709,1256.08,513.942,1254.84 C507.868,1253.61,502.354,1253.23,497.37,1253.64 C503.596,1248.03,509.823,1242.43,516.049,1236.83 C524.672,1235.09,530.87,1232.82,534.618,1230.02 C540.907,1226.11,549.605,1217.64,560.712,1204.6 C560.61,1203.82,556.105,1204.91,547.204,1207.88 C539.038,1210.96,533.02,1213.65,529.14,1215.95 C518.286,1221.64,510.603,1227.93,506.08,1234.84 C506.175,1234.98,506.27,1235.12,506.365,1235.25 C501.869,1238.39,497.491,1241.53,493.232,1244.69 C495.015,1232.96,493.705,1221.18,489.268,1209.35 C488.476,1207.45,487.685,1205.55,486.893,1203.66 C485.253,1206.94,483.833,1210.68,482.624,1214.86 C480.671,1222.48,479.505,1228.41,479.133,1232.62 C478.451,1242.93,478.631,1250.41,479.677,1255.09 C474.971,1258.84,470.422,1262.6,466.042,1266.38 C466.072,1261.34,465.703,1256.75,464.907,1252.63 C462.988,1240.32,460.503,1231.78,457.443,1226.98 C457.051,1226.44,456.66,1225.9,456.268,1225.36 C454.366,1229.28,452.718,1233.65,451.331,1238.49 C449.082,1247.27,447.747,1254.03,447.333,1258.79 C446.809,1265.23,446.674,1270.66,446.936,1275.08 C447.364,1279.38,447.725,1281.98,448.031,1282.95 C443.354,1287.54,438.91,1292.15,434.701,1296.79 C433.871,1281.62,429.341,1268.12,421.104,1256.31 C418.019,1263.8,416.632,1273.37,416.945,1285.01 C417.537,1299.46,418.482,1309.3,419.773,1314.6 C414.49,1321.47,409.713,1328.4,405.428,1335.39 C404.091,1323.85,399.449,1310.9,391.493,1296.55 C389.667,1301.46,389.143,1313.32,389.904,1332.12 C390.513,1343.18,392.279,1350.03,395.204,1352.66 C395.378,1352.78,395.58,1352.87,395.759,1352.98 C393.73,1357.13,391.851,1361.31,390.166,1365.5 C389.327,1367.28,388.502,1369.09,387.692,1370.94 C383.847,1359.23,376.694,1347.44,366.21,1335.58 C364.08,1343.37,364.951,1355.38,368.839,1371.59 C371.644,1383.65,375.12,1390.79,379.254,1393.04 C376.629,1400.92,374.214,1409.29,372.006,1418.13 C369.951,1414.31,367.538,1410.46,364.739,1406.58 C360.808,1401.5,356.303,1396.25,351.223,1390.85 C347.631,1387.16,344.106,1383.72,340.648,1380.54 C340.158,1380.16,339.853,1380.12,339.752,1380.42 C343.328,1406.48,352.759,1424.91,368.006,1435.76 C366.183,1444.65,364.548,1453.97,363.095,1463.71 C360.771,1460.39,357.849,1456.56,354.258,1452.16 C343.607,1440.6,334.208,1432.16,326.042,1426.84 C325.042,1426.22,324.041,1425.6,323.041,1424.99 C323.793,1429.88,325.188,1434.86,327.217,1439.92 C328.392,1443.68,331.815,1450.14,337.496,1459.32 C339.902,1462.54,342.309,1465.75,344.715,1468.96 C345.983,1470.77,349.28,1474.59,354.613,1480.43 C356.589,1482.47,358.486,1484.26,360.309,1485.82 C359.362,1495.52,358.684,1505.11,358.265,1514.59 C349.57,1502.08,336.901,1491.18,320.243,1481.9 C317.383,1480.41,314.523,1478.92,311.663,1477.43 C313.421,1483.7,321.206,1496.29,335.035,1515.2 C344.164,1526.68,349.684,1533.16,351.586,1534.65 C354.312,1537.34,356.37,1538.88,357.767,1539.31 C357.815,1549.29,358.167,1559.14,358.825,1568.86 C353.811,1563.5,348.405,1558.65,342.592,1554.32 C334.536,1548.76,328.788,1545.21,325.34,1543.69 C320.767,1541.36,316.151,1539.42,311.494,1537.88 C311.528,1540.17,313.742,1544.84,318.138,1551.87 C320.995,1556.02,324.706,1560.5,329.287,1565.32 C334.756,1570.67,341.51,1576.2,349.549,1581.89 C353.767,1584.61,357.047,1585.97,359.371,1585.97 C359.687,1585.93,359.978,1585.86,360.289,1585.82 C361.155,1593.98,362.237,1602.05,363.546,1610.02 C363.699,1611.01,363.873,1611.99,364.037,1612.98 C360.471,1610.42,356.542,1607.85,352.211,1605.26 C348.813,1603.28,342.583,1600.27,333.521,1596.23 C328.469,1594.13,323.417,1592.02,318.365,1589.91 C316.421,1589.15,315.432,1588.94,315.415,1589.27 C317.385,1593.4,320.284,1597.84,324.105,1602.59 C331.442,1611.11,337.672,1617.52,342.795,1621.83 C352.803,1629.41,359.033,1633.7,361.484,1634.69 C364.385,1636.35,367.017,1637.34,369.393,1637.68 C371.643,1646.02,374.307,1654.22,377.4,1662.26 C372.569,1660.04,367.389,1657.93,361.814,1655.96 C350.749,1652.91,341.949,1650.88,335.398,1649.87 C328.492,1648.98,324.561,1648.86,323.606,1649.47 C331.4,1656.77,337.528,1661.85,342.008,1664.73 C347.579,1668.64,353.682,1672.45,360.309,1676.13 C372.506,1682.66,382.025,1686.53,388.89,1687.76 C392.593,1694.89,396.655,1701.9,401.079,1708.78 C384.009,1702.96,363.835,1700.21,340.545,1700.55 C349.345,1709.02,362.286,1716.56,379.361,1723.16 C393.961,1728.7,406.722,1731.59,417.702,1731.9 C423.832,1739.59,430.445,1747.1,437.558,1754.44 C433.062,1753.63,427.885,1752.92,421.99,1752.33 C401.745,1751.77,389.48,1752.95,385.186,1755.87 C391.12,1761.35,403.461,1767.17,422.219,1773.33 C442.464,1778.79,453.732,1780.23,456.022,1777.68 C456.997,1776.66,457.915,1775.61,458.799,1774.54 C459.548,1775.2,460.285,1775.85,461.043,1776.5 C469.251,1783.48,477.44,1790.05,485.611,1796.23 C473.497,1794.79,461.008,1794.85,448.135,1796.48 C426.673,1799.15,414.847,1802.01,412.675,1805.05 C425.667,1814.45,442.861,1820.28,464.264,1822.56 C480.426,1823.38,492.573,1819.83,500.73,1811.89 C501.584,1810.92,502.379,1809.93,503.145,1808.92 C515.526,1817.46,527.864,1825.11,540.159,1831.83 C527.569,1831.62,514.941,1833.1,502.269,1836.29 C482.438,1841.03,472.895,1845.38,473.639,1849.35 C472.616,1851.29,479.455,1853.07,494.171,1854.69 C504.898,1855.82,515.236,1855.73,525.185,1854.41 C539.459,1852.5,549.381,1847.52,554.958,1839.49 C571.615,1847.62,588.192,1854.08,604.69,1858.86 C588.418,1863.1,575.048,1868.45,564.601,1874.92 C556.317,1879.61,549.369,1884.59,543.739,1889.87 C537.636,1895.79,535.7,1899.38,537.949,1900.61 C558.245,1903.06,576.748,1900.86,593.451,1894.02 C609.607,1886.47,620.371,1876.48,625.781,1864.06 C639.117,1866.77,652.401,1868.39,665.632,1868.88 C668.309,1869.13,670.985,1869.37,673.662,1869.62 C673.965,1859.29,673.619,1854.9,672.621,1856.45 z"/>
</svg>
