<?xml version="1.0" encoding="utf-8"?>
<svg x="2912.79pt" y="1250.96pt" width="251.718pt" height="603.242pt" viewBox="2912.79 1250.96 251.718 603.242" xmlns="http://www.w3.org/2000/svg" xmlns:xlink="http://www.w3.org/1999/xlink">
  <!--Generated by AMDN-->
  <path id="Path_28" style="fill:#000000;fill-opacity:1;fill-rule:nonzero;opacity:1;stroke:none;" d="M3154.98,1817.42 C3154.69,1817.28,3154.03,1840.08,3133.94,1850.06 C3113.48,1860.41,3080.49,1848.17,3080.71,1847.72 C3080.42,1847.51,3084.79,1824.34,3105.61,1817.49 C3126.14,1810.79,3154.83,1817.78,3154.98,1817.42 z M3138.82,1734.58 C3139.04,1734.58,3123.38,1750.25,3127.61,1771.67 C3131.83,1793.53,3157.82,1809.19,3157.82,1808.75 C3158.04,1808.68,3168.74,1790.25,3162.63,1770.58 C3156.44,1751.12,3138.74,1734.88,3138.82,1734.58 z M3102.48,1791.12 C3102.26,1791.41,3076.56,1779.03,3055.88,1781.5 C3034.91,1784.05,3026.68,1805.62,3026.9,1805.91 C3026.61,1806.27,3055.73,1825.07,3076.85,1819.1 C3097.61,1813.34,3102.26,1790.97,3102.48,1791.12 z M3106.71,1783.18 C3106.92,1783.18,3120.32,1767,3117.99,1746.38 C3115.66,1726.06,3101.6,1706.9,3101.68,1706.68 C3101.9,1706.75,3084.35,1719.21,3084.64,1740.92 C3084.93,1763.14,3106.63,1783.54,3106.71,1783.18 z M3056.39,1754.11 C3056.17,1754.33,3033.89,1737.21,3013.8,1735.31 C2993.33,1733.49,2981.75,1752.43,2981.9,1752.73 C2981.61,1753.01,3006.08,1777.42,3027.19,1776.04 C3047.79,1774.8,3056.17,1753.81,3056.39,1754.11 z M3061.78,1747.12 C3062,1747.18,3077.58,1734,3078.96,1713.38 C3080.27,1693.06,3070.08,1671.78,3070.15,1671.56 C3070.37,1671.71,3051.51,1680.45,3048.09,1701.65 C3044.6,1723.29,3061.63,1747.48,3061.78,1747.12 z M3017.94,1707.48 C3017.72,1707.63,2999.45,1686.5,2980.52,1680.45 C2961.29,1674.33,2946.95,1689.93,2947.02,1690.21 C2946.66,1690.36,2965.88,1719.21,2986.27,1722.42 C3006.08,1725.7,3017.79,1707.19,3017.94,1707.48 z M3046.56,1672.66 C3051.29,1653.2,3045.03,1630.54,3045.18,1630.4 C3045.32,1630.62,3025.88,1635.43,3019.04,1655.17 C3012.05,1675.28,3024.13,1702.09,3024.28,1701.8 C3024.5,1702.02,3041.68,1692.4,3046.56,1672.66 z M2988.46,1652.91 C2988.24,1652.99,2974.33,1628.79,2957.29,1618.89 C2939.96,1608.84,2923.58,1620.49,2923.65,1620.78 C2923.28,1620.86,2936.68,1652.69,2955.61,1660.35 C2974.03,1667.85,2988.38,1652.62,2988.46,1652.91 z M2995.51,1648.91 C2995.66,1649.12,3013.72,1643.44,3021.73,1625.37 C3029.59,1607.52,3027.26,1584.36,3027.48,1584.21 C3027.63,1584.43,3008.19,1585.23,2998.43,1602.86 C2988.46,1620.78,2995.3,1649.12,2995.51,1648.91 z M2936.54,1592.08 C2952.85,1603.51,2969.16,1592.08,2969.16,1592.37 C2968.94,1592.37,2959.84,1566.21,2945.2,1552.88 C2930.35,1539.48,2912.87,1546.76,2912.8,1547.05 C2912.58,1547.12,2919.86,1580.49,2936.54,1592.08 z M3005.56,1573.13 C3016.05,1557.54,3017.66,1534.66,3017.79,1534.59 C3017.87,1534.81,2999.23,1531.68,2987.07,1546.54 C2974.62,1561.62,2976.36,1590.25,2976.58,1590.11 C2976.73,1590.33,2994.93,1588.87,3005.56,1573.13 z M2960.85,1528.33 C2960.64,1528.25,2956.41,1501.22,2944.83,1485.2 C2933.04,1469.03,2915.28,1471.94,2915.2,1472.23 C2914.91,1472.16,2916.15,1505.67,2929.99,1520.61 C2943.45,1535.33,2960.93,1528.04,2960.85,1528.33 z M2968.29,1527.75 C2968.36,1527.97,2985.91,1530.58,2998.65,1517.69 C3011.25,1504.94,3016.49,1483.15,3016.71,1483.08 C3016.71,1483.3,2999.59,1476.53,2985.54,1488.26 C2971.2,1500.06,2968.06,1527.82,2968.29,1527.75 z M2963.98,1463.12 C2963.77,1463.05,2964.43,1436.17,2956.2,1418.32 C2947.82,1400.25,2930.57,1398.93,2930.42,1399.15 C2930.13,1399.01,2925.61,1431.29,2936.1,1448.7 C2946.36,1465.89,2964.13,1462.83,2963.98,1463.12 z M3001.63,1461.15 C3015.68,1451.54,3024.43,1431.57,3024.57,1431.57 C3024.57,1431.79,3009.42,1421.88,2994.2,1430.04 C2978.62,1438.42,2970.98,1464.22,2971.2,1464.22 C2971.12,1464.43,2987.36,1470.84,3001.63,1461.15 z M2978.69,1399.37 C2978.55,1399.23,2983.8,1373.73,2979.14,1354.78 C2974.33,1335.7,2958.38,1330.6,2958.24,1330.74 C2958.02,1330.52,2948.19,1360.25,2954.96,1379.26 C2961.59,1397.99,2978.77,1399.15,2978.69,1399.37 z M3014.45,1405.64 C3029.37,1399.37,3041.1,1381.81,3041.24,1381.81 C3041.17,1382.03,3028.57,1369.5,3012.77,1374.17 C2996.68,1378.9,2984.96,1401.92,2985.18,1402 C2985.18,1402.21,2999.3,1411.97,3014.45,1405.64 z M3004.55,1339.63 C3004.4,1339.48,3013.86,1316.25,3012.85,1297.16 C3011.68,1277.92,2997.71,1269.55,2997.56,1269.69 C2997.41,1269.47,2982.92,1295.55,2985.91,1315.23 C2988.67,1334.6,3004.62,1339.48,3004.55,1339.63 z M3037.09,1353.25 C3052.31,1350.34,3066.51,1335.7,3066.66,1335.77 C3066.58,1335.98,3056.9,1321.49,3041.1,1322.8 C3025.08,1324.04,3009.94,1343.49,3010.15,1343.56 C3010.08,1343.78,3021.65,1356.24,3037.09,1353.25 z M3059.52,1286.95 C3073.94,1270.93,3082.24,1251.11,3082.31,1250.96 C3082.46,1250.89,3062.36,1254.03,3046.41,1271.51 C3030.39,1289,3027.26,1311.58,3027.34,1311.37 C3027.48,1311.29,3044.96,1302.99,3059.52,1286.95 z"/>
</svg>
